# xmcd CD database file
#
# Track frame offsets:
#	150
#	14293
#	24720
#	38940
#	51262
#	68295
#	84918
#	97625
#	111471
#	126418
#
# Disc length: 1988 seconds
#
# Revision: 0
# Processed by: cddbd v1.5.1PL0 Copyright (c) Steve Scherf et al.
# Submitted via: CDex 1.50
#
DISCID=7707c20a
DTITLE=Linda&THE HOLLYWOOD CONBO featuring Big Jay McNeely - JUMP AROUND THE WEST COAST
DYEAR=2004
DGENRE=Jazz
TTITLE0=3-D
TTITLE1=Yeah,Yeah,Yeah
TTITLE2=We're Gonna Have A Party Tonight
TTITLE3=Nervous Man Nervous
TTITLE4=When My Baby Goes Rockin'
TTITLE5=Money Honey
TTITLE6=Deacon's Hop
TTITLE7=Sugaree
TTITLE8=There Is Something On Your Mind
TTITLE9=So Young
EXTD=YEAR: 2004
EXTT0=
EXTT1=
EXTT2=
EXTT3=
EXTT4=
EXTT5=
EXTT6=
EXTT7=
EXTT8=
EXTT9=
PLAYORDER=
